<svg width="70" height="17" viewBox="0 0 70 17" fill="none" xmlns="http://www.w3.org/2000/svg">
<mask id="mask0" mask-type="alpha" maskUnits="userSpaceOnUse" x="0" y="16" width="68" height="1">
<path d="M0 16H68V17H0V16Z" fill="white"/>
</mask>
<g mask="url(#mask0)">
<rect y="16" width="68" height="1" fill="#FDCD4A"/>
</g>
<path d="M13.7 10.295C13.7733 10.295 13.8367 10.3233 13.89 10.38L14.42 10.955C14.1267 11.3183 13.765 11.5967 13.335 11.79C12.9083 11.9833 12.395 12.08 11.795 12.08C11.2583 12.08 10.775 11.9883 10.345 11.805C9.91833 11.6217 9.55333 11.3667 9.25 11.04C8.94667 10.7133 8.71333 10.3233 8.55 9.87C8.39 9.41667 8.31 8.92167 8.31 8.385C8.31 7.84167 8.4 7.345 8.58 6.895C8.76 6.44167 9.01333 6.05167 9.34 5.725C9.66667 5.39833 10.0567 5.145 10.51 4.965C10.9667 4.78167 11.47 4.69 12.02 4.69C12.5567 4.69 13.025 4.77667 13.425 4.95C13.8283 5.12 14.1733 5.34667 14.46 5.63L14.01 6.255C13.9833 6.295 13.9483 6.33 13.905 6.36C13.865 6.39 13.8083 6.405 13.735 6.405C13.6583 6.405 13.58 6.375 13.5 6.315C13.42 6.255 13.3183 6.19 13.195 6.12C13.0717 6.05 12.915 5.985 12.725 5.925C12.5383 5.865 12.3 5.835 12.01 5.835C11.67 5.835 11.3567 5.895 11.07 6.015C10.7867 6.13167 10.5417 6.3 10.335 6.52C10.1317 6.74 9.97167 7.00833 9.855 7.325C9.74167 7.63833 9.685 7.99167 9.685 8.385C9.685 8.79167 9.74167 9.15333 9.855 9.47C9.97167 9.78667 10.1283 10.0533 10.325 10.27C10.5217 10.4867 10.7533 10.6533 11.02 10.77C11.2867 10.8833 11.5733 10.94 11.88 10.94C12.0633 10.94 12.2283 10.93 12.375 10.91C12.525 10.89 12.6617 10.8583 12.785 10.815C12.9117 10.7717 13.03 10.7167 13.14 10.65C13.2533 10.58 13.365 10.495 13.475 10.395C13.5083 10.365 13.5433 10.3417 13.58 10.325C13.6167 10.305 13.6567 10.295 13.7 10.295ZM23.574 8.385C23.574 8.915 23.4857 9.40667 23.309 9.86C23.1323 10.31 22.884 10.7 22.564 11.03C22.244 11.36 21.859 11.6183 21.409 11.805C20.959 11.9883 20.4607 12.08 19.914 12.08C19.3673 12.08 18.8673 11.9883 18.414 11.805C17.964 11.6183 17.5773 11.36 17.254 11.03C16.934 10.7 16.6857 10.31 16.509 9.86C16.3323 9.40667 16.244 8.915 16.244 8.385C16.244 7.855 16.3323 7.365 16.509 6.915C16.6857 6.46167 16.934 6.07 17.254 5.74C17.5773 5.41 17.964 5.15333 18.414 4.97C18.8673 4.78333 19.3673 4.69 19.914 4.69C20.4607 4.69 20.959 4.78333 21.409 4.97C21.859 5.15667 22.244 5.415 22.564 5.745C22.884 6.07167 23.1323 6.46167 23.309 6.915C23.4857 7.365 23.574 7.855 23.574 8.385ZM22.194 8.385C22.194 7.98833 22.1407 7.63333 22.034 7.32C21.9307 7.00333 21.7807 6.735 21.584 6.515C21.3873 6.295 21.1473 6.12667 20.864 6.01C20.584 5.89333 20.2673 5.835 19.914 5.835C19.5607 5.835 19.2423 5.89333 18.959 6.01C18.6757 6.12667 18.434 6.295 18.234 6.515C18.0373 6.735 17.8857 7.00333 17.779 7.32C17.6723 7.63333 17.619 7.98833 17.619 8.385C17.619 8.78167 17.6723 9.13833 17.779 9.455C17.8857 9.76833 18.0373 10.035 18.234 10.255C18.434 10.4717 18.6757 10.6383 18.959 10.755C19.2423 10.8717 19.5607 10.93 19.914 10.93C20.2673 10.93 20.584 10.8717 20.864 10.755C21.1473 10.6383 21.3873 10.4717 21.584 10.255C21.7807 10.035 21.9307 9.76833 22.034 9.455C22.1407 9.13833 22.194 8.78167 22.194 8.385ZM26.542 4.77C26.602 4.77 26.652 4.77333 26.692 4.78C26.732 4.78333 26.767 4.79333 26.797 4.81C26.8304 4.82333 26.862 4.845 26.892 4.875C26.922 4.90167 26.9554 4.93833 26.992 4.985L30.787 9.82C30.7737 9.70333 30.7637 9.59 30.757 9.48C30.7537 9.36667 30.752 9.26167 30.752 9.165V4.77H31.937V12H31.242C31.1354 12 31.047 11.9833 30.977 11.95C30.907 11.9167 30.8387 11.8567 30.772 11.77L26.992 6.955C27.002 7.06167 27.0087 7.16833 27.012 7.275C27.0187 7.37833 27.022 7.47333 27.022 7.56V12H25.837V4.77H26.542ZM39.6906 4.77V5.875H37.5156V12H36.1706V5.875H33.9856V4.77H39.6906ZM43.2579 12H41.9079V4.77H43.2579V12ZM46.7924 4.77C46.8524 4.77 46.9024 4.77333 46.9424 4.78C46.9824 4.78333 47.0174 4.79333 47.0474 4.81C47.0808 4.82333 47.1124 4.845 47.1424 4.875C47.1724 4.90167 47.2058 4.93833 47.2424 4.985L51.0374 9.82C51.0241 9.70333 51.0141 9.59 51.0074 9.48C51.0041 9.36667 51.0024 9.26167 51.0024 9.165V4.77H52.1874V12H51.4924C51.3858 12 51.2974 11.9833 51.2274 11.95C51.1574 11.9167 51.0891 11.8567 51.0224 11.77L47.2424 6.955C47.2524 7.06167 47.2591 7.16833 47.2624 7.275C47.2691 7.37833 47.2724 7.47333 47.2724 7.56V12H46.0874V4.77H46.7924ZM57.756 10.915C58.016 10.915 58.2477 10.8717 58.451 10.785C58.6577 10.6983 58.831 10.5767 58.971 10.42C59.1144 10.2633 59.2227 10.0733 59.296 9.85C59.3727 9.62667 59.411 9.37667 59.411 9.1V4.77H60.756V9.1C60.756 9.53 60.686 9.92833 60.546 10.295C60.4093 10.6583 60.211 10.9733 59.951 11.24C59.691 11.5033 59.376 11.71 59.006 11.86C58.636 12.0067 58.2193 12.08 57.756 12.08C57.2927 12.08 56.876 12.0067 56.506 11.86C56.136 11.71 55.821 11.5033 55.561 11.24C55.3043 10.9733 55.106 10.6583 54.966 10.295C54.8293 9.92833 54.761 9.53 54.761 9.1V4.77H56.106V9.095C56.106 9.37167 56.1427 9.62167 56.216 9.845C56.2927 10.0683 56.401 10.26 56.541 10.42C56.681 10.5767 56.8527 10.6983 57.056 10.785C57.2627 10.8717 57.496 10.915 57.756 10.915ZM67.8814 4.77V5.84H64.6764V7.845H67.2014V8.88H64.6764V10.925H67.8814V12H63.3214V4.77H67.8814Z" fill="#343538"/>
<g clip-path="url(#clip0)">
<mask id="mask1" mask-type="alpha" maskUnits="userSpaceOnUse" x="-1" y="4" width="6" height="8">
<path fill-rule="evenodd" clip-rule="evenodd" d="M4.94922 7.71351L-0.00213099 11.427L-0.00213099 4L4.94922 7.71351Z" fill="white"/>
</mask>
<g mask="url(#mask1)">
<rect y="4" width="4.95135" height="7.42702" fill="#343538"/>
</g>
</g>
<defs>
<clipPath id="clip0">
<rect y="4" width="4.95135" height="7.42702" fill="white"/>
</clipPath>
</defs>
</svg>
