<svg width="100" height="17" viewBox="0 0 100 17" fill="none" xmlns="http://www.w3.org/2000/svg">
<mask id="mask0" mask-type="alpha" maskUnits="userSpaceOnUse" x="0" y="16" width="100" height="1">
<path d="M0 16H99.6178V17H0V16Z" fill="white"/>
</mask>
<g mask="url(#mask0)">
<rect y="16" width="99.6178" height="1" fill="#FDCD4A"/>
</g>
<path d="M16.0986 8.385C16.0986 8.915 16.0103 9.40667 15.8336 9.86C15.6569 10.31 15.4086 10.7 15.0886 11.03C14.7686 11.36 14.3836 11.6183 13.9336 11.805C13.4836 11.9883 12.9853 12.08 12.4386 12.08C11.8919 12.08 11.3919 11.9883 10.9386 11.805C10.4886 11.6183 10.1019 11.36 9.77859 11.03C9.45859 10.7 9.21026 10.31 9.03359 9.86C8.85693 9.40667 8.76859 8.915 8.76859 8.385C8.76859 7.855 8.85693 7.365 9.03359 6.915C9.21026 6.46167 9.45859 6.07 9.77859 5.74C10.1019 5.41 10.4886 5.15333 10.9386 4.97C11.3919 4.78333 11.8919 4.69 12.4386 4.69C12.9853 4.69 13.4836 4.78333 13.9336 4.97C14.3836 5.15667 14.7686 5.415 15.0886 5.745C15.4086 6.07167 15.6569 6.46167 15.8336 6.915C16.0103 7.365 16.0986 7.855 16.0986 8.385ZM14.7186 8.385C14.7186 7.98833 14.6653 7.63333 14.5586 7.32C14.4553 7.00333 14.3053 6.735 14.1086 6.515C13.9119 6.295 13.6719 6.12667 13.3886 6.01C13.1086 5.89333 12.7919 5.835 12.4386 5.835C12.0853 5.835 11.7669 5.89333 11.4836 6.01C11.2003 6.12667 10.9586 6.295 10.7586 6.515C10.5619 6.735 10.4103 7.00333 10.3036 7.32C10.1969 7.63333 10.1436 7.98833 10.1436 8.385C10.1436 8.78167 10.1969 9.13833 10.3036 9.455C10.4103 9.76833 10.5619 10.035 10.7586 10.255C10.9586 10.4717 11.2003 10.6383 11.4836 10.755C11.7669 10.8717 12.0853 10.93 12.4386 10.93C12.7919 10.93 13.1086 10.8717 13.3886 10.755C13.6719 10.6383 13.9119 10.4717 14.1086 10.255C14.3053 10.035 14.4553 9.76833 14.5586 9.455C14.6653 9.13833 14.7186 8.78167 14.7186 8.385ZM19.7516 9.175V12H18.4066V4.77H20.6116C21.105 4.77 21.5266 4.82167 21.8766 4.925C22.23 5.025 22.5183 5.16667 22.7416 5.35C22.9683 5.53333 23.1333 5.75333 23.2366 6.01C23.3433 6.26333 23.3966 6.54333 23.3966 6.85C23.3966 7.09333 23.36 7.32333 23.2866 7.54C23.2166 7.75667 23.1133 7.95333 22.9766 8.13C22.8433 8.30667 22.6766 8.46167 22.4766 8.595C22.28 8.72833 22.055 8.835 21.8016 8.915C21.9716 9.01167 22.1183 9.15 22.2416 9.33L24.0516 12H22.8416C22.725 12 22.625 11.9767 22.5416 11.93C22.4616 11.8833 22.3933 11.8167 22.3366 11.73L20.8166 9.415C20.76 9.32833 20.6966 9.26667 20.6266 9.23C20.56 9.19333 20.46 9.175 20.3266 9.175H19.7516ZM19.7516 8.21H20.5916C20.845 8.21 21.065 8.17833 21.2516 8.115C21.4416 8.05167 21.5966 7.965 21.7166 7.855C21.84 7.74167 21.9316 7.60833 21.9916 7.455C22.0516 7.30167 22.0816 7.13333 22.0816 6.95C22.0816 6.58333 21.96 6.30167 21.7166 6.105C21.4766 5.90833 21.1083 5.81 20.6116 5.81H19.7516V8.21ZM32.5344 8.385C32.5344 8.915 32.446 9.40167 32.2694 9.845C32.0927 10.2883 31.8444 10.67 31.5244 10.99C31.2044 11.31 30.8194 11.5583 30.3694 11.735C29.9194 11.9117 29.421 12 28.8744 12H26.1144V4.77H28.8744C29.421 4.77 29.9194 4.86 30.3694 5.04C30.8194 5.21667 31.2044 5.465 31.5244 5.785C31.8444 6.10167 32.0927 6.48167 32.2694 6.925C32.446 7.36833 32.5344 7.855 32.5344 8.385ZM31.1594 8.385C31.1594 7.98833 31.106 7.63333 30.9994 7.32C30.8927 7.00333 30.741 6.73667 30.5444 6.52C30.3477 6.3 30.1077 6.13167 29.8244 6.015C29.5444 5.89833 29.2277 5.84 28.8744 5.84H27.4694V10.93H28.8744C29.2277 10.93 29.5444 10.8717 29.8244 10.755C30.1077 10.6383 30.3477 10.4717 30.5444 10.255C30.741 10.035 30.8927 9.76833 30.9994 9.455C31.106 9.13833 31.1594 8.78167 31.1594 8.385ZM39.3451 4.77V5.84H36.1401V7.845H38.6651V8.88H36.1401V10.925H39.3451V12H34.7851V4.77H39.3451ZM43.0977 9.175V12H41.7527V4.77H43.9577C44.4511 4.77 44.8727 4.82167 45.2227 4.925C45.5761 5.025 45.8644 5.16667 46.0877 5.35C46.3144 5.53333 46.4794 5.75333 46.5827 6.01C46.6894 6.26333 46.7427 6.54333 46.7427 6.85C46.7427 7.09333 46.7061 7.32333 46.6327 7.54C46.5627 7.75667 46.4594 7.95333 46.3227 8.13C46.1894 8.30667 46.0227 8.46167 45.8227 8.595C45.6261 8.72833 45.4011 8.835 45.1477 8.915C45.3177 9.01167 45.4644 9.15 45.5877 9.33L47.3977 12H46.1877C46.0711 12 45.9711 11.9767 45.8877 11.93C45.8077 11.8833 45.7394 11.8167 45.6827 11.73L44.1627 9.415C44.1061 9.32833 44.0427 9.26667 43.9727 9.23C43.9061 9.19333 43.8061 9.175 43.6727 9.175H43.0977ZM43.0977 8.21H43.9377C44.1911 8.21 44.4111 8.17833 44.5977 8.115C44.7877 8.05167 44.9427 7.965 45.0627 7.855C45.1861 7.74167 45.2777 7.60833 45.3377 7.455C45.3977 7.30167 45.4277 7.13333 45.4277 6.95C45.4277 6.58333 45.3061 6.30167 45.0627 6.105C44.8227 5.90833 44.4544 5.81 43.9577 5.81H43.0977V8.21ZM56.4691 6.085C56.4324 6.15833 56.3891 6.21 56.3391 6.24C56.2924 6.27 56.2357 6.285 56.1691 6.285C56.1024 6.285 56.0274 6.26 55.9441 6.21C55.8607 6.15667 55.7624 6.09833 55.6491 6.035C55.5357 5.97167 55.4024 5.915 55.2491 5.865C55.0991 5.81167 54.9207 5.785 54.7141 5.785C54.5274 5.785 54.3641 5.80833 54.2241 5.855C54.0874 5.89833 53.9707 5.96 53.8741 6.04C53.7807 6.12 53.7107 6.21667 53.6641 6.33C53.6174 6.44 53.5941 6.56167 53.5941 6.695C53.5941 6.865 53.6407 7.00667 53.7341 7.12C53.8307 7.23333 53.9574 7.33 54.1141 7.41C54.2707 7.49 54.4491 7.56167 54.6491 7.625C54.8491 7.68833 55.0524 7.75667 55.2591 7.83C55.4691 7.9 55.6741 7.98333 55.8741 8.08C56.0741 8.17333 56.2524 8.29333 56.4091 8.44C56.5657 8.58333 56.6907 8.76 56.7841 8.97C56.8807 9.18 56.9291 9.435 56.9291 9.735C56.9291 10.0617 56.8724 10.3683 56.7591 10.655C56.6491 10.9383 56.4857 11.1867 56.2691 11.4C56.0557 11.61 55.7941 11.7767 55.4841 11.9C55.1741 12.02 54.8191 12.08 54.4191 12.08C54.1891 12.08 53.9624 12.0567 53.7391 12.01C53.5157 11.9667 53.3007 11.9033 53.0941 11.82C52.8907 11.7367 52.6991 11.6367 52.5191 11.52C52.3424 11.4033 52.1841 11.2733 52.0441 11.13L52.4341 10.485C52.4707 10.4383 52.5141 10.4 52.5641 10.37C52.6174 10.3367 52.6757 10.32 52.7391 10.32C52.8224 10.32 52.9124 10.355 53.0091 10.425C53.1057 10.4917 53.2191 10.5667 53.3491 10.65C53.4824 10.7333 53.6374 10.81 53.8141 10.88C53.9941 10.9467 54.2091 10.98 54.4591 10.98C54.8424 10.98 55.1391 10.89 55.3491 10.71C55.5591 10.5267 55.6641 10.265 55.6641 9.925C55.6641 9.735 55.6157 9.58 55.5191 9.46C55.4257 9.34 55.3007 9.24 55.1441 9.16C54.9874 9.07667 54.8091 9.00667 54.6091 8.95C54.4091 8.89333 54.2057 8.83167 53.9991 8.765C53.7924 8.69833 53.5891 8.61833 53.3891 8.525C53.1891 8.43167 53.0107 8.31 52.8541 8.16C52.6974 8.01 52.5707 7.82333 52.4741 7.6C52.3807 7.37333 52.3341 7.095 52.3341 6.765C52.3341 6.50167 52.3857 6.245 52.4891 5.995C52.5957 5.745 52.7491 5.52333 52.9491 5.33C53.1524 5.13667 53.4007 4.98167 53.6941 4.865C53.9874 4.74833 54.3224 4.69 54.6991 4.69C55.1257 4.69 55.5191 4.75667 55.8791 4.89C56.2391 5.02333 56.5457 5.21 56.7991 5.45L56.4691 6.085ZM58.4854 4.77H59.6154C59.7321 4.77 59.8287 4.79833 59.9054 4.855C59.9854 4.90833 60.0387 4.98167 60.0654 5.075L61.2954 9.4C61.3254 9.50667 61.3521 9.62333 61.3754 9.75C61.4021 9.87333 61.4271 10.005 61.4504 10.145C61.4771 10.005 61.5054 9.87333 61.5354 9.75C61.5687 9.62333 61.6037 9.50667 61.6404 9.4L63.0604 5.075C63.0871 4.99833 63.1387 4.92833 63.2154 4.865C63.2954 4.80167 63.3921 4.77 63.5054 4.77H63.9004C64.0171 4.77 64.1137 4.79833 64.1904 4.855C64.2671 4.90833 64.3204 4.98167 64.3504 5.075L65.7604 9.4C65.8337 9.61333 65.8971 9.85 65.9504 10.11C65.9737 9.98 65.9971 9.855 66.0204 9.735C66.0471 9.615 66.0737 9.50333 66.1004 9.4L67.3304 5.075C67.3537 4.99167 67.4054 4.92 67.4854 4.86C67.5654 4.8 67.6621 4.77 67.7754 4.77H68.8304L66.5854 12H65.3704L63.7904 7.06C63.7704 6.99667 63.7487 6.92833 63.7254 6.855C63.7054 6.78167 63.6854 6.70333 63.6654 6.62C63.6454 6.70333 63.6237 6.78167 63.6004 6.855C63.5804 6.92833 63.5604 6.99667 63.5404 7.06L61.9454 12H60.7304L58.4854 4.77ZM76.5932 12H75.5532C75.4365 12 75.3399 11.9717 75.2632 11.915C75.1899 11.855 75.1365 11.7817 75.1032 11.695L74.5632 10.22H71.5682L71.0282 11.695C71.0015 11.7717 70.9482 11.8417 70.8682 11.905C70.7915 11.9683 70.6965 12 70.5832 12H69.5382L72.3782 4.77H73.7532L76.5932 12ZM71.9132 9.27H74.2182L73.3382 6.865C73.2982 6.75833 73.2532 6.63333 73.2032 6.49C73.1565 6.34333 73.1099 6.185 73.0632 6.015C73.0165 6.185 72.9699 6.34333 72.9232 6.49C72.8799 6.63667 72.8365 6.765 72.7932 6.875L71.9132 9.27ZM82.9004 4.77V5.875H80.7254V12H79.3804V5.875H77.1954V4.77H82.9004ZM89.532 10.295C89.6054 10.295 89.6687 10.3233 89.722 10.38L90.252 10.955C89.9587 11.3183 89.597 11.5967 89.167 11.79C88.7404 11.9833 88.227 12.08 87.627 12.08C87.0904 12.08 86.607 11.9883 86.177 11.805C85.7504 11.6217 85.3854 11.3667 85.082 11.04C84.7787 10.7133 84.5454 10.3233 84.382 9.87C84.222 9.41667 84.142 8.92167 84.142 8.385C84.142 7.84167 84.232 7.345 84.412 6.895C84.592 6.44167 84.8454 6.05167 85.172 5.725C85.4987 5.39833 85.8887 5.145 86.342 4.965C86.7987 4.78167 87.302 4.69 87.852 4.69C88.3887 4.69 88.857 4.77667 89.257 4.95C89.6604 5.12 90.0054 5.34667 90.292 5.63L89.842 6.255C89.8154 6.295 89.7804 6.33 89.737 6.36C89.697 6.39 89.6404 6.405 89.567 6.405C89.4904 6.405 89.412 6.375 89.332 6.315C89.252 6.255 89.1504 6.19 89.027 6.12C88.9037 6.05 88.747 5.985 88.557 5.925C88.3704 5.865 88.132 5.835 87.842 5.835C87.502 5.835 87.1887 5.895 86.902 6.015C86.6187 6.13167 86.3737 6.3 86.167 6.52C85.9637 6.74 85.8037 7.00833 85.687 7.325C85.5737 7.63833 85.517 7.99167 85.517 8.385C85.517 8.79167 85.5737 9.15333 85.687 9.47C85.8037 9.78667 85.9604 10.0533 86.157 10.27C86.3537 10.4867 86.5854 10.6533 86.852 10.77C87.1187 10.8833 87.4054 10.94 87.712 10.94C87.8954 10.94 88.0604 10.93 88.207 10.91C88.357 10.89 88.4937 10.8583 88.617 10.815C88.7437 10.7717 88.862 10.7167 88.972 10.65C89.0854 10.58 89.197 10.495 89.307 10.395C89.3404 10.365 89.3754 10.3417 89.412 10.325C89.4487 10.305 89.4887 10.295 89.532 10.295ZM98.571 12H97.216V8.84H93.826V12H92.471V4.77H93.826V7.88H97.216V4.77H98.571V12Z" fill="#343538"/>
<g clip-path="url(#clip0)">
<mask id="mask1" mask-type="alpha" maskUnits="userSpaceOnUse" x="-1" y="4" width="6" height="8">
<path fill-rule="evenodd" clip-rule="evenodd" d="M4.94922 7.71351L-0.00213099 11.427L-0.00213099 4L4.94922 7.71351Z" fill="white"/>
</mask>
<g mask="url(#mask1)">
<rect y="4" width="4.98225" height="7.42702" fill="#343538"/>
</g>
</g>
<defs>
<clipPath id="clip0">
<rect y="4" width="4.98225" height="7.42702" fill="white"/>
</clipPath>
</defs>
</svg>
