<svg width="101" height="17" viewBox="0 0 101 17" fill="none" xmlns="http://www.w3.org/2000/svg">
<mask id="mask0" mask-type="alpha" maskUnits="userSpaceOnUse" x="0" y="16" width="101" height="1">
<path d="M0 16H101V17H0V16Z" fill="white"/>
</mask>
<g mask="url(#mask0)">
<rect y="16" width="101" height="1" fill="#FDCD4A"/>
</g>
<path d="M13.0386 6.085C13.0019 6.15833 12.9586 6.21 12.9086 6.24C12.8619 6.27 12.8053 6.285 12.7386 6.285C12.6719 6.285 12.5969 6.26 12.5136 6.21C12.4303 6.15667 12.3319 6.09833 12.2186 6.035C12.1053 5.97167 11.9719 5.915 11.8186 5.865C11.6686 5.81167 11.4903 5.785 11.2836 5.785C11.0969 5.785 10.9336 5.80833 10.7936 5.855C10.6569 5.89833 10.5403 5.96 10.4436 6.04C10.3503 6.12 10.2803 6.21667 10.2336 6.33C10.1869 6.44 10.1636 6.56167 10.1636 6.695C10.1636 6.865 10.2103 7.00667 10.3036 7.12C10.4003 7.23333 10.5269 7.33 10.6836 7.41C10.8403 7.49 11.0186 7.56167 11.2186 7.625C11.4186 7.68833 11.6219 7.75667 11.8286 7.83C12.0386 7.9 12.2436 7.98333 12.4436 8.08C12.6436 8.17333 12.8219 8.29333 12.9786 8.44C13.1353 8.58333 13.2603 8.76 13.3536 8.97C13.4503 9.18 13.4986 9.435 13.4986 9.735C13.4986 10.0617 13.4419 10.3683 13.3286 10.655C13.2186 10.9383 13.0553 11.1867 12.8386 11.4C12.6253 11.61 12.3636 11.7767 12.0536 11.9C11.7436 12.02 11.3886 12.08 10.9886 12.08C10.7586 12.08 10.5319 12.0567 10.3086 12.01C10.0853 11.9667 9.87026 11.9033 9.66359 11.82C9.46026 11.7367 9.26859 11.6367 9.08859 11.52C8.91193 11.4033 8.75359 11.2733 8.61359 11.13L9.00359 10.485C9.04026 10.4383 9.08359 10.4 9.13359 10.37C9.18693 10.3367 9.24526 10.32 9.30859 10.32C9.39193 10.32 9.48193 10.355 9.57859 10.425C9.67526 10.4917 9.78859 10.5667 9.91859 10.65C10.0519 10.7333 10.2069 10.81 10.3836 10.88C10.5636 10.9467 10.7786 10.98 11.0286 10.98C11.4119 10.98 11.7086 10.89 11.9186 10.71C12.1286 10.5267 12.2336 10.265 12.2336 9.925C12.2336 9.735 12.1853 9.58 12.0886 9.46C11.9953 9.34 11.8703 9.24 11.7136 9.16C11.5569 9.07667 11.3786 9.00667 11.1786 8.95C10.9786 8.89333 10.7753 8.83167 10.5686 8.765C10.3619 8.69833 10.1586 8.61833 9.95859 8.525C9.75859 8.43167 9.58026 8.31 9.42359 8.16C9.26693 8.01 9.14026 7.82333 9.04359 7.6C8.95026 7.37333 8.90359 7.095 8.90359 6.765C8.90359 6.50167 8.95526 6.245 9.05859 5.995C9.16526 5.745 9.31859 5.52333 9.51859 5.33C9.72193 5.13667 9.97026 4.98167 10.2636 4.865C10.5569 4.74833 10.8919 4.69 11.2686 4.69C11.6953 4.69 12.0886 4.75667 12.4486 4.89C12.8086 5.02333 13.1153 5.21 13.3686 5.45L13.0386 6.085ZM15.0549 4.77H16.1849C16.3016 4.77 16.3983 4.79833 16.4749 4.855C16.5549 4.90833 16.6083 4.98167 16.6349 5.075L17.8649 9.4C17.8949 9.50667 17.9216 9.62333 17.9449 9.75C17.9716 9.87333 17.9966 10.005 18.0199 10.145C18.0466 10.005 18.0749 9.87333 18.1049 9.75C18.1383 9.62333 18.1733 9.50667 18.2099 9.4L19.6299 5.075C19.6566 4.99833 19.7083 4.92833 19.7849 4.865C19.8649 4.80167 19.9616 4.77 20.0749 4.77H20.4699C20.5866 4.77 20.6833 4.79833 20.7599 4.855C20.8366 4.90833 20.8899 4.98167 20.9199 5.075L22.3299 9.4C22.4033 9.61333 22.4666 9.85 22.5199 10.11C22.5433 9.98 22.5666 9.855 22.5899 9.735C22.6166 9.615 22.6433 9.50333 22.6699 9.4L23.8999 5.075C23.9233 4.99167 23.9749 4.92 24.0549 4.86C24.1349 4.8 24.2316 4.77 24.3449 4.77H25.3999L23.1549 12H21.9399L20.3599 7.06C20.3399 6.99667 20.3183 6.92833 20.2949 6.855C20.2749 6.78167 20.2549 6.70333 20.2349 6.62C20.2149 6.70333 20.1933 6.78167 20.1699 6.855C20.1499 6.92833 20.1299 6.99667 20.1099 7.06L18.5149 12H17.2999L15.0549 4.77ZM33.1627 12H32.1227C32.0061 12 31.9094 11.9717 31.8327 11.915C31.7594 11.855 31.7061 11.7817 31.6727 11.695L31.1327 10.22H28.1377L27.5977 11.695C27.5711 11.7717 27.5177 11.8417 27.4377 11.905C27.3611 11.9683 27.2661 12 27.1527 12H26.1077L28.9477 4.77H30.3227L33.1627 12ZM28.4827 9.27H30.7877L29.9077 6.865C29.8677 6.75833 29.8227 6.63333 29.7727 6.49C29.7261 6.34333 29.6794 6.185 29.6327 6.015C29.5861 6.185 29.5394 6.34333 29.4927 6.49C29.4494 6.63667 29.4061 6.765 29.3627 6.875L28.4827 9.27ZM39.4699 4.77V5.875H37.2949V12H35.9499V5.875H33.7649V4.77H39.4699ZM46.1016 10.295C46.1749 10.295 46.2382 10.3233 46.2916 10.38L46.8216 10.955C46.5282 11.3183 46.1666 11.5967 45.7366 11.79C45.3099 11.9833 44.7966 12.08 44.1966 12.08C43.6599 12.08 43.1766 11.9883 42.7466 11.805C42.3199 11.6217 41.9549 11.3667 41.6516 11.04C41.3482 10.7133 41.1149 10.3233 40.9516 9.87C40.7916 9.41667 40.7116 8.92167 40.7116 8.385C40.7116 7.84167 40.8016 7.345 40.9816 6.895C41.1616 6.44167 41.4149 6.05167 41.7416 5.725C42.0682 5.39833 42.4582 5.145 42.9116 4.965C43.3682 4.78167 43.8716 4.69 44.4216 4.69C44.9582 4.69 45.4266 4.77667 45.8266 4.95C46.2299 5.12 46.5749 5.34667 46.8616 5.63L46.4116 6.255C46.3849 6.295 46.3499 6.33 46.3066 6.36C46.2666 6.39 46.2099 6.405 46.1366 6.405C46.0599 6.405 45.9816 6.375 45.9016 6.315C45.8216 6.255 45.7199 6.19 45.5966 6.12C45.4732 6.05 45.3166 5.985 45.1266 5.925C44.9399 5.865 44.7016 5.835 44.4116 5.835C44.0716 5.835 43.7582 5.895 43.4716 6.015C43.1882 6.13167 42.9432 6.3 42.7366 6.52C42.5332 6.74 42.3732 7.00833 42.2566 7.325C42.1432 7.63833 42.0866 7.99167 42.0866 8.385C42.0866 8.79167 42.1432 9.15333 42.2566 9.47C42.3732 9.78667 42.5299 10.0533 42.7266 10.27C42.9232 10.4867 43.1549 10.6533 43.4216 10.77C43.6882 10.8833 43.9749 10.94 44.2816 10.94C44.4649 10.94 44.6299 10.93 44.7766 10.91C44.9266 10.89 45.0632 10.8583 45.1866 10.815C45.3132 10.7717 45.4316 10.7167 45.5416 10.65C45.6549 10.58 45.7666 10.495 45.8766 10.395C45.9099 10.365 45.9449 10.3417 45.9816 10.325C46.0182 10.305 46.0582 10.295 46.1016 10.295ZM55.1405 12H53.7855V8.84H50.3955V12H49.0405V4.77H50.3955V7.88H53.7855V4.77H55.1405V12ZM67.2877 12H66.2477C66.1311 12 66.0344 11.9717 65.9577 11.915C65.8844 11.855 65.8311 11.7817 65.7977 11.695L65.2577 10.22H62.2627L61.7227 11.695C61.6961 11.7717 61.6427 11.8417 61.5627 11.905C61.4861 11.9683 61.3911 12 61.2777 12H60.2327L63.0727 4.77H64.4477L67.2877 12ZM62.6077 9.27H64.9127L64.0327 6.865C63.9927 6.75833 63.9477 6.63333 63.8977 6.49C63.8511 6.34333 63.8044 6.185 63.7577 6.015C63.7111 6.185 63.6644 6.34333 63.6177 6.49C63.5744 6.63667 63.5311 6.765 63.4877 6.875L62.6077 9.27ZM75.6523 8.385C75.6523 8.915 75.564 9.40167 75.3873 9.845C75.2107 10.2883 74.9623 10.67 74.6423 10.99C74.3223 11.31 73.9373 11.5583 73.4873 11.735C73.0373 11.9117 72.539 12 71.9923 12H69.2323V4.77H71.9923C72.539 4.77 73.0373 4.86 73.4873 5.04C73.9373 5.21667 74.3223 5.465 74.6423 5.785C74.9623 6.10167 75.2107 6.48167 75.3873 6.925C75.564 7.36833 75.6523 7.855 75.6523 8.385ZM74.2773 8.385C74.2773 7.98833 74.224 7.63333 74.1173 7.32C74.0107 7.00333 73.859 6.73667 73.6623 6.52C73.4657 6.3 73.2257 6.13167 72.9423 6.015C72.6623 5.89833 72.3457 5.84 71.9923 5.84H70.5873V10.93H71.9923C72.3457 10.93 72.6623 10.8717 72.9423 10.755C73.2257 10.6383 73.4657 10.4717 73.6623 10.255C73.859 10.035 74.0107 9.76833 74.1173 9.455C74.224 9.13833 74.2773 8.78167 74.2773 8.385ZM84.3231 8.385C84.3231 8.915 84.2347 9.40167 84.0581 9.845C83.8814 10.2883 83.6331 10.67 83.3131 10.99C82.9931 11.31 82.6081 11.5583 82.1581 11.735C81.7081 11.9117 81.2097 12 80.663 12H77.903V4.77H80.663C81.2097 4.77 81.7081 4.86 82.1581 5.04C82.6081 5.21667 82.9931 5.465 83.3131 5.785C83.6331 6.10167 83.8814 6.48167 84.0581 6.925C84.2347 7.36833 84.3231 7.855 84.3231 8.385ZM82.9481 8.385C82.9481 7.98833 82.8947 7.63333 82.7881 7.32C82.6814 7.00333 82.5297 6.73667 82.3331 6.52C82.1364 6.3 81.8964 6.13167 81.6131 6.015C81.3331 5.89833 81.0164 5.84 80.663 5.84H79.2581V10.93H80.663C81.0164 10.93 81.3331 10.8717 81.6131 10.755C81.8964 10.6383 82.1364 10.4717 82.3331 10.255C82.5297 10.035 82.6814 9.76833 82.7881 9.455C82.8947 9.13833 82.9481 8.78167 82.9481 8.385ZM91.1338 4.77V5.84H87.9288V7.845H90.4538V8.88H87.9288V10.925H91.1338V12H86.5738V4.77H91.1338ZM99.9164 8.385C99.9164 8.915 99.8281 9.40167 99.6514 9.845C99.4747 10.2883 99.2264 10.67 98.9064 10.99C98.5864 11.31 98.2014 11.5583 97.7514 11.735C97.3014 11.9117 96.8031 12 96.2564 12H93.4964V4.77H96.2564C96.8031 4.77 97.3014 4.86 97.7514 5.04C98.2014 5.21667 98.5864 5.465 98.9064 5.785C99.2264 6.10167 99.4747 6.48167 99.6514 6.925C99.8281 7.36833 99.9164 7.855 99.9164 8.385ZM98.5414 8.385C98.5414 7.98833 98.4881 7.63333 98.3814 7.32C98.2747 7.00333 98.1231 6.73667 97.9264 6.52C97.7297 6.3 97.4897 6.13167 97.2064 6.015C96.9264 5.89833 96.6097 5.84 96.2564 5.84H94.8514V10.93H96.2564C96.6097 10.93 96.9264 10.8717 97.2064 10.755C97.4897 10.6383 97.7297 10.4717 97.9264 10.255C98.1231 10.035 98.2747 9.76833 98.3814 9.455C98.4881 9.13833 98.5414 8.78167 98.5414 8.385Z" fill="#343538"/>
<g clip-path="url(#clip0)">
<mask id="mask1" mask-type="alpha" maskUnits="userSpaceOnUse" x="-1" y="4" width="6" height="8">
<path fill-rule="evenodd" clip-rule="evenodd" d="M4.94922 7.71351L-0.00213099 11.427L-0.00213099 4L4.94922 7.71351Z" fill="white"/>
</mask>
<g mask="url(#mask1)">
<rect y="4" width="4.98225" height="7.42702" fill="#343538"/>
</g>
</g>
<defs>
<clipPath id="clip0">
<rect y="4" width="4.98225" height="7.42702" fill="white"/>
</clipPath>
</defs>
</svg>
