<svg xmlns="http://www.w3.org/2000/svg" width="38" height="32" fill="none" viewBox="0 0 38 32">
    <path fill="#FDCD4A" fill-rule="evenodd" d="M32.541 24.967h3.628c.644 0 1.167-.523 1.167-1.166V9.817c0-.645-.523-1.167-1.167-1.167h-10.5V2c0-1.284-1.046-2-2.334-2H2.333C1.044 0 0 .715 0 2v20.638c0 1.285 1.044 2.329 2.333 2.329h.125c-.08.387-.126.789-.126 1.2C2.332 29.39 4.943 32 8.166 32 11.387 32 14 29.389 14 26.168c0-.411-.046-.814-.127-1.201h7.254c-.08.387-.126.789-.126 1.2 0 3.222 2.611 5.833 5.834 5.833 3.221 0 5.834-2.611 5.834-5.832 0-.411-.046-.814-.127-1.201zm-2.206 1.201c0 1.918-1.568 3.472-3.5 3.472-1.933 0-3.5-1.554-3.5-3.472s1.567-3.471 3.5-3.471c1.932 0 3.5 1.553 3.5 3.471zM8.167 29.64c1.932 0 3.5-1.554 3.5-3.472s-1.568-3.471-3.5-3.471c-1.933 0-3.5 1.553-3.5 3.471 0 1.918 1.567 3.472 3.5 3.472zM22.168 2c.644 0 1.167.809 1.167 1.417V20.9l-.002.01c-.002.004-.003.007-.003.011-.431.308-.813.67-1.137 1.076-.004 0-.009 0-.013.002l-.012.002h-9.355c-1.065-1.334-2.74-2.21-4.646-2.21-1.905 0-3.581.876-4.645 2.21H3.5c-.646 0-1.167-.492-1.167-1.1V3.417C2.334 2.81 2.855 2 3.5 2h18.667zm12.834 9.01h-9.334v4.652h9.334V11.01zm-9.334 9.442v-2.429h9.334v4.652H31.48c-1.064-1.413-2.74-2.34-4.645-2.34-.4 0-.79.041-1.167.117z" clip-rule="evenodd"/>
</svg>
